<?xml version="1.0" standalone="no"?><!DOCTYPE svg PUBLIC "-//W3C//DTD SVG 1.1//EN" "http://www.w3.org/Graphics/SVG/1.1/DTD/svg11.dtd"><svg t="1684314754079" class="icon" viewBox="0 0 1024 1024" version="1.1" xmlns="http://www.w3.org/2000/svg" p-id="17736" width="128" height="128" xmlns:xlink="http://www.w3.org/1999/xlink"><path d="M0 0h1024v1024H0z" fill="#33BC6E" p-id="17737"></path><path d="M536.45824 820.85888h103.43424v59.7504h-103.43424v-59.7504zM286.464 725.1456l-92.8512 95.66208H484.7616V880.64H122.88v-67.15904l99.92704-108.672-0.75776-189.2352a7.5264 7.5264 0 0 1 2.17088-5.31456l9.96864-10.0864a148553.66656 148553.66656 0 0 1 117.36064-118.5024l0.55808-0.5632A35716.98688 35716.98688 0 0 1 456.5504 276.09088C530.7904 201.9328 650.33728 148.48 764.7744 148.48c55.0912 0 101.9392 10.19904 140.65152 27.22304 13.5936 5.97504 25.20576 12.38528 34.85184 18.81088a15.54944 15.54944 0 0 1 2.37056 23.94624L437.248 722.96448a7.45472 7.45472 0 0 1-5.26336 2.18112H286.464zM856.1152 221.0304c-27.5968-8.448-58.2144-12.71808-91.3408-12.71808-49.6384 0-102.37952 11.83744-152.49408 34.24256-43.76064 19.56864-84.05504 46.52544-113.41824 75.85792-14.56128 14.5408-35.29728 35.36896-61.47072 61.71648v103.59808l104.15616-107.3152 5.47328-0.08192 37.4016 36.21888 0.08192 5.5296-239.96416 247.23456h65.792l445.78304-444.27776z m-573.696 422.36928l95.11936-98.00704V440.45312a195878.87104 195878.87104 0 0 0-95.54432 96.49664l0.42496 106.4448z" fill="#FFFFFF" p-id="17738"></path></svg>